Coordinates
version=1
nRows=32
nColumns=18
inDegrees=yes

Units are S.I. units (second, meters, Newtons, ...)
If the header above contains a line with 'inDegrees', this indicates whether rotational values are in degrees (yes) or radians (no).

endheader
time	ground_thorax_rot_x	ground_thorax_rot_y	ground_thorax_rot_z	ground_thorax_tx	ground_thorax_ty	ground_thorax_tz	clav_prot	clav_elev	scapula_abduction	scapula_elevation	scapula_upward_rot	scapula_winging	plane_elv	shoulder_elv	axial_rot	elbow_flexion	pro_sup
      5.95000000	      1.59564849	     -4.92440482	    -10.30195045	      0.00000000	      0.00000000	      0.00000000	    -21.38915544	     -5.60558269	     -9.65660827	     -5.17138039	     13.80371325	      5.56768498	    -28.78185611	     12.12062041	     57.91566875	      0.00000000	     34.32000000
      5.96000000	      1.36375137	     -4.61338011	    -10.26360700	      0.00000000	      0.00000000	      0.00000000	    -21.61051410	     -5.97543472	    -10.43452200	     -5.25561725	     12.98126136	      5.91988780	    -27.41528520	     12.95813270	     51.87996527	      0.00000000	     34.32000000
      5.97000000	      1.47673993	     -4.64735765	    -10.22261830	      0.00000000	      0.00000000	      0.00000000	    -21.55567875	     -5.84428400	    -10.15318659	     -5.24833238	     13.35404017	      5.77730887	    -30.76980599	     12.34321272	     58.64259979	      0.00000000	     34.32000000
      5.98000000	      1.43864068	     -4.68234953	    -10.27422731	      0.00000000	      0.00000000	      0.00000000	    -21.37612773	     -6.01807964	    -10.00400122	     -5.28154175	     13.00720423	      5.91048190	    -29.56224802	     13.02434445	     53.14206588	      0.00000000	     34.32000000
      5.99000000	      1.52850379	     -4.69605369	    -10.35714954	      0.00000000	      0.00000000	      0.00000000	    -21.36100214	     -6.00059296	    -10.01266130	     -5.25315648	     12.95347316	      5.91570684	    -29.59776892	     13.01645333	     53.14855854	      0.00000000	     34.32000000
      6.00000000	      1.39141051	     -4.49812536	    -10.21494530	      0.00000000	      0.00000000	      0.00000000	    -21.52686156	     -5.90078270	    -10.19408158	     -5.24377851	     13.17548019	      5.83883576	    -33.37992001	     12.17718677	     58.43049388	      0.00000000	     34.32000000
      6.01000000	      1.30231466	     -4.29198748	    -10.28610274	      0.00000000	      0.00000000	      0.00000000	    -21.75503717	     -5.99213587	    -10.87201197	     -5.19046359	     12.64979355	      6.01698337	    -31.28686158	     12.45964667	     53.99650938	      0.00000000	     34.32000000
      6.02000000	      1.36885297	     -4.36637564	    -10.17720121	      0.00000000	      0.00000000	      0.00000000	    -21.63602686	     -5.85467094	    -10.57774534	     -5.13183209	     12.85729324	      5.90745606	    -33.99640129	     11.99202136	     58.76475722	      0.00000000	     34.32000000
      6.03000000	      1.55409767	     -4.41612868	    -10.12388572	      0.00000000	      0.00000000	      0.00000000	    -21.53707905	     -5.70957315	    -10.40643083	     -5.02932425	     12.91461579	      5.83314073	    -34.86084409	     11.92038541	     61.58563803	      0.00000000	     34.32000000
      6.04000000	      1.46898421	     -4.45457307	    -10.16085176	      0.00000000	      0.00000000	      0.00000000	    -21.40957484	     -5.96717768	    -10.46193450	     -5.06712169	     12.33099034	      6.05788947	    -32.73332752	     12.74472642	     55.08887146	      0.00000000	     34.32000000
      6.05000000	      1.56454062	     -4.49043163	    -10.21383192	      0.00000000	      0.00000000	      0.00000000	    -21.41475056	     -5.98267456	    -10.47265245	     -5.07702363	     12.32166029	      6.06606189	    -32.75984118	     12.79908409	     55.10149400	      0.00000000	     34.32000000
      6.06000000	      1.25764006	     -4.31146099	    -10.15547452	      0.00000000	      0.00000000	      0.00000000	    -21.53171078	     -6.31276733	    -10.69417153	     -5.29552857	     12.15837379	      6.23694178	    -34.92150098	     12.73748587	     56.68740588	      0.00000000	     34.32000000
      6.07000000	      1.31394865	     -4.34617799	    -10.18943267	      0.00000000	      0.00000000	      0.00000000	    -21.53572850	     -6.29590587	    -10.71578833	     -5.27786650	     12.13972753	      6.23568643	    -34.90301471	     12.70418014	     56.70118512	      0.00000000	     34.32000000
      6.08000000	      1.48994546	     -4.15268587	    -10.17432038	      0.00000000	      0.00000000	      0.00000000	    -21.77655142	     -6.03492776	    -11.14946873	     -5.10994995	     12.21297783	      6.13962556	    -34.99187978	     12.21068250	     61.66284394	      0.00000000	     34.32000000
      6.09000000	      1.32503392	     -3.97026523	    -10.20800215	      0.00000000	      0.00000000	      0.00000000	    -21.83433693	     -6.30129460	    -11.41785113	     -5.21280440	     11.81083323	      6.33911331	    -33.40242702	     12.64567414	     57.26480474	      0.00000000	     34.32000000
      6.10000000	      1.50964071	     -3.84224842	    -10.12567565	      0.00000000	      0.00000000	      0.00000000	    -21.89476873	     -6.14806406	    -11.35338730	     -5.19273363	     12.16920506	      6.20036628	    -35.00880292	     12.26726793	     61.46625429	      0.00000000	     34.32000000
      6.11000000	      1.48781445	     -3.74235874	    -10.09219569	      0.00000000	      0.00000000	      0.00000000	    -21.82384248	     -6.28688676	    -11.29864242	     -5.24978639	     11.99507714	      6.28895862	    -33.84794287	     12.85326998	     56.50319201	      0.00000000	     34.32000000
      6.12000000	      1.52131128	     -3.58760161	    -10.07297060	      0.00000000	      0.00000000	      0.00000000	    -21.91429544	     -6.11912375	    -11.42304453	     -5.15814314	     12.11816825	      6.20384853	    -34.08047102	     12.39990847	     58.89910191	      0.00000000	     34.32000000
      6.13000000	      1.37855814	     -3.59635802	    -10.05086891	      0.00000000	      0.00000000	      0.00000000	    -21.92510736	     -6.05008307	    -11.46861367	     -5.10009120	     12.09776286	      6.18323573	    -34.02777844	     12.06110649	     58.91380070	      0.00000000	     34.32000000
      6.14000000	      1.08456002	     -3.15600144	    -10.21876129	      0.00000000	      0.00000000	      0.00000000	    -22.36377392	     -6.53705724	    -12.63966791	     -5.25687144	     11.17142172	      6.61431597	    -29.59066740	     12.85102144	     50.12916036	      0.00000000	     34.32000000
      6.15000000	      1.16223414	     -3.45948649	    -10.03975006	      0.00000000	      0.00000000	      0.00000000	    -22.06506494	     -6.33053292	    -12.10486596	     -5.11002805	     11.28751440	      6.49119502	    -29.95945413	     12.73414722	     50.47713643	      0.00000000	     34.32000000
      6.16000000	      1.50033646	     -3.45132026	    -10.03831249	      0.00000000	      0.00000000	      0.00000000	    -22.11446438	     -6.02505606	    -11.81220154	     -5.08726448	     12.07967893	      6.19108195	    -33.53480915	     11.62483411	     61.56813265	      0.00000000	     34.32000000
      6.17000000	      1.52527994	     -3.48481944	    -10.03307271	      0.00000000	      0.00000000	      0.00000000	    -21.95790951	     -6.11649794	    -11.51946701	     -5.14907682	     12.08173892	      6.21385627	    -33.31984211	     11.89743843	     58.92657122	      0.00000000	     34.32000000
      6.18000000	      1.54898468	     -3.36716857	    -10.00356655	      0.00000000	      0.00000000	      0.00000000	    -21.97053407	     -6.17486831	    -11.53715334	     -5.19068739	     12.06592272	      6.24028943	    -34.24343988	     11.70934745	     62.07579754	      0.00000000	     34.32000000
      6.19000000	      1.30017018	     -3.24565777	    -10.08131011	      0.00000000	      0.00000000	      0.00000000	    -22.03330245	     -6.57566893	    -11.89650727	     -5.34487545	     11.46425493	      6.53938591	    -31.14286106	     12.53015749	     52.52702946	      0.00000000	     34.32000000
      6.20000000	      1.38555824	     -3.26703958	    -10.07283807	      0.00000000	      0.00000000	      0.00000000	    -22.08228005	     -6.43956156	    -11.98080210	     -5.25687188	     11.51817532	      6.47776096	    -31.33838047	     12.16810893	     55.18848759	      0.00000000	     34.32000000
      6.21000000	      1.30798745	     -3.39029951	    -10.13279238	      0.00000000	      0.00000000	      0.00000000	    -22.08048572	     -6.44887717	    -12.01125497	     -5.24737907	     11.45537232	      6.49633228	    -29.70884085	     12.16385570	     51.60660918	      0.00000000	     34.32000000
      6.22000000	      1.29259105	     -3.45342595	    -10.13281138	      0.00000000	      0.00000000	      0.00000000	    -22.09028556	     -6.40237302	    -12.04419043	     -5.20904450	     11.44474550	      6.48197762	    -29.68907267	     12.04784846	     51.64290503	      0.00000000	     34.32000000
      6.23000000	      1.38004755	     -3.33849903	     -9.91507039	      0.00000000	      0.00000000	      0.00000000	    -22.20599604	     -6.13917855	    -12.10845284	     -5.10433635	     11.79048939	      6.30846560	    -31.56574071	     11.61079606	     54.64469863	      0.00000000	     34.32000000
      6.24000000	      1.41187426	     -3.30584254	     -9.94644687	      0.00000000	      0.00000000	      0.00000000	    -22.21001692	     -6.15499597	    -12.10141802	     -5.12163385	     11.80873429	      6.30984681	    -31.53176279	     11.58288492	     54.68249678	      0.00000000	     34.32000000
      6.25000000	      1.33291318	     -3.20621592	    -10.06820193	      0.00000000	      0.00000000	      0.00000000	    -22.35753835	     -6.34155720	    -12.40281267	     -5.23301022	     11.65169992	      6.42565286	    -30.29906640	     11.75301453	     52.06441826	      0.00000000	     34.32000000
      6.26000000	      1.41718616	     -3.11448927	     -9.99320311	      0.00000000	      0.00000000	      0.00000000	    -22.47489014	     -6.00703255	    -12.49862511	     -5.06726670	     11.97473685	      6.22977602	    -33.16317428	     10.64123511	     62.65079985	      0.00000000	     34.32000000
